<mxfile host="app.diagrams.net" agent="Mozilla/5.0 (Windows NT 10.0; Win64; x64) AppleWebKit/537.36 (KHTML, like Gecko) Chrome/133.0.0.0 Safari/537.36" version="26.0.14">
  <diagram name="Page-1" id="e1TiszcAQvgpfgPblTH6">
    <mxGraphModel dx="1194" dy="716" grid="1" gridSize="10" guides="1" tooltips="1" connect="1" arrows="1" fold="1" page="1" pageScale="1" pageWidth="850" pageHeight="1100" math="0" shadow="0">
      <root>
        <mxCell id="0" />
        <mxCell id="1" parent="0" />
        <mxCell id="WgxtZ3xMRt9cT9mJnqBo-4" value="4" style="ellipse;aspect=fixed;fillColor=#0050ef;fontColor=#ffffff;strokeColor=#001DBC;" parent="1" vertex="1">
          <mxGeometry x="250" y="350" width="50" height="50" as="geometry" />
        </mxCell>
        <mxCell id="WgxtZ3xMRt9cT9mJnqBo-5" value="5" style="ellipse;aspect=fixed;fillColor=#0050ef;fontColor=#ffffff;strokeColor=#001DBC;" parent="1" vertex="1">
          <mxGeometry x="320" y="430" width="50" height="50" as="geometry" />
        </mxCell>
        <mxCell id="WgxtZ3xMRt9cT9mJnqBo-6" value="8" style="ellipse;aspect=fixed;fillColor=#0050ef;fontColor=#ffffff;strokeColor=#001DBC;" parent="1" vertex="1">
          <mxGeometry x="640" y="340" width="50" height="50" as="geometry" />
        </mxCell>
        <mxCell id="WgxtZ3xMRt9cT9mJnqBo-7" value="6" style="ellipse;aspect=fixed;fillColor=#0050ef;fontColor=#ffffff;strokeColor=#001DBC;" parent="1" vertex="1">
          <mxGeometry x="440" y="430" width="50" height="50" as="geometry" />
        </mxCell>
        <mxCell id="WgxtZ3xMRt9cT9mJnqBo-8" value="7" style="ellipse;aspect=fixed;fillColor=#0050ef;fontColor=#ffffff;strokeColor=#001DBC;" parent="1" vertex="1">
          <mxGeometry x="580" y="420" width="50" height="50" as="geometry" />
        </mxCell>
        <mxCell id="QiN_mr4yA5usqslSAaUG-3" value="1" style="ellipse;aspect=fixed;fillColor=#0050ef;fontColor=#ffffff;strokeColor=#001DBC;" parent="1" vertex="1">
          <mxGeometry x="370" y="110" width="50" height="50" as="geometry" />
        </mxCell>
        <mxCell id="QiN_mr4yA5usqslSAaUG-4" value="2" style="ellipse;aspect=fixed;fillColor=#0050ef;fontColor=#ffffff;strokeColor=#001DBC;" parent="1" vertex="1">
          <mxGeometry x="270" y="160" width="50" height="50" as="geometry" />
        </mxCell>
        <mxCell id="QiN_mr4yA5usqslSAaUG-5" value="11" style="ellipse;aspect=fixed;fillColor=#0050ef;fontColor=#ffffff;strokeColor=#001DBC;" parent="1" vertex="1">
          <mxGeometry x="500" y="120" width="50" height="50" as="geometry" />
        </mxCell>
        <mxCell id="QiN_mr4yA5usqslSAaUG-11" value="10" style="ellipse;aspect=fixed;fillColor=#0050ef;fontColor=#ffffff;strokeColor=#001DBC;" parent="1" vertex="1">
          <mxGeometry x="600" y="160" width="50" height="50" as="geometry" />
        </mxCell>
        <mxCell id="QiN_mr4yA5usqslSAaUG-12" value="9" style="ellipse;aspect=fixed;fillColor=#0050ef;fontColor=#ffffff;strokeColor=#001DBC;" parent="1" vertex="1">
          <mxGeometry x="650" y="250" width="50" height="50" as="geometry" />
        </mxCell>
        <mxCell id="QiN_mr4yA5usqslSAaUG-13" value="3" style="ellipse;aspect=fixed;fillColor=#0050ef;fontColor=#ffffff;strokeColor=#001DBC;" parent="1" vertex="1">
          <mxGeometry x="220" y="250" width="50" height="50" as="geometry" />
        </mxCell>
        <mxCell id="QiN_mr4yA5usqslSAaUG-18" value="" style="endArrow=none;rounded=0;strokeWidth=4;entryX=0.94;entryY=0.68;entryDx=0;entryDy=0;entryPerimeter=0;exitX=0;exitY=0.5;exitDx=0;exitDy=0;" parent="1" source="QiN_mr4yA5usqslSAaUG-11" target="QiN_mr4yA5usqslSAaUG-5" edge="1">
          <mxGeometry width="50" height="50" relative="1" as="geometry">
            <mxPoint x="730" y="130" as="sourcePoint" />
            <mxPoint x="660" y="130" as="targetPoint" />
          </mxGeometry>
        </mxCell>
        <mxCell id="1RYsxwtu4yks75y-5LN4-1" value="" style="endArrow=none;rounded=0;strokeWidth=4;entryX=1;entryY=0.5;entryDx=0;entryDy=0;exitX=0;exitY=0.5;exitDx=0;exitDy=0;" parent="1" source="QiN_mr4yA5usqslSAaUG-5" target="QiN_mr4yA5usqslSAaUG-3" edge="1">
          <mxGeometry width="50" height="50" relative="1" as="geometry">
            <mxPoint x="510" y="120" as="sourcePoint" />
            <mxPoint x="440" y="120" as="targetPoint" />
          </mxGeometry>
        </mxCell>
        <mxCell id="1RYsxwtu4yks75y-5LN4-2" value="" style="endArrow=none;rounded=0;strokeWidth=4;exitX=0.5;exitY=0;exitDx=0;exitDy=0;entryX=1;entryY=1;entryDx=0;entryDy=0;" parent="1" source="QiN_mr4yA5usqslSAaUG-12" target="QiN_mr4yA5usqslSAaUG-11" edge="1">
          <mxGeometry width="50" height="50" relative="1" as="geometry">
            <mxPoint x="520" y="130" as="sourcePoint" />
            <mxPoint x="450" y="130" as="targetPoint" />
          </mxGeometry>
        </mxCell>
        <mxCell id="1RYsxwtu4yks75y-5LN4-3" value="" style="endArrow=none;rounded=0;strokeWidth=4;exitX=0.5;exitY=0;exitDx=0;exitDy=0;entryX=0.5;entryY=1;entryDx=0;entryDy=0;" parent="1" source="WgxtZ3xMRt9cT9mJnqBo-6" target="QiN_mr4yA5usqslSAaUG-12" edge="1">
          <mxGeometry width="50" height="50" relative="1" as="geometry">
            <mxPoint x="685" y="260" as="sourcePoint" />
            <mxPoint x="653" y="213" as="targetPoint" />
          </mxGeometry>
        </mxCell>
        <mxCell id="1RYsxwtu4yks75y-5LN4-4" value="" style="endArrow=none;rounded=0;strokeWidth=4;exitX=1;exitY=0;exitDx=0;exitDy=0;entryX=0;entryY=1;entryDx=0;entryDy=0;" parent="1" source="WgxtZ3xMRt9cT9mJnqBo-8" target="WgxtZ3xMRt9cT9mJnqBo-6" edge="1">
          <mxGeometry width="50" height="50" relative="1" as="geometry">
            <mxPoint x="695" y="270" as="sourcePoint" />
            <mxPoint x="663" y="223" as="targetPoint" />
          </mxGeometry>
        </mxCell>
        <mxCell id="1RYsxwtu4yks75y-5LN4-5" value="" style="endArrow=none;rounded=0;strokeWidth=4;exitX=0;exitY=0.5;exitDx=0;exitDy=0;entryX=1;entryY=0.5;entryDx=0;entryDy=0;" parent="1" source="WgxtZ3xMRt9cT9mJnqBo-8" target="WgxtZ3xMRt9cT9mJnqBo-7" edge="1">
          <mxGeometry width="50" height="50" relative="1" as="geometry">
            <mxPoint x="705" y="280" as="sourcePoint" />
            <mxPoint x="673" y="233" as="targetPoint" />
          </mxGeometry>
        </mxCell>
        <mxCell id="1RYsxwtu4yks75y-5LN4-6" value="" style="endArrow=none;rounded=0;strokeWidth=4;exitX=0;exitY=0.5;exitDx=0;exitDy=0;entryX=1;entryY=0.5;entryDx=0;entryDy=0;" parent="1" source="WgxtZ3xMRt9cT9mJnqBo-7" target="WgxtZ3xMRt9cT9mJnqBo-5" edge="1">
          <mxGeometry width="50" height="50" relative="1" as="geometry">
            <mxPoint x="715" y="290" as="sourcePoint" />
            <mxPoint x="683" y="243" as="targetPoint" />
          </mxGeometry>
        </mxCell>
        <mxCell id="1RYsxwtu4yks75y-5LN4-7" value="" style="endArrow=none;rounded=0;strokeWidth=4;exitX=0;exitY=0;exitDx=0;exitDy=0;entryX=1;entryY=1;entryDx=0;entryDy=0;" parent="1" source="WgxtZ3xMRt9cT9mJnqBo-5" target="WgxtZ3xMRt9cT9mJnqBo-4" edge="1">
          <mxGeometry width="50" height="50" relative="1" as="geometry">
            <mxPoint x="725" y="300" as="sourcePoint" />
            <mxPoint x="693" y="253" as="targetPoint" />
          </mxGeometry>
        </mxCell>
        <mxCell id="1RYsxwtu4yks75y-5LN4-8" value="" style="endArrow=none;rounded=0;strokeWidth=4;exitX=0;exitY=0;exitDx=0;exitDy=0;entryX=0.5;entryY=1;entryDx=0;entryDy=0;" parent="1" source="WgxtZ3xMRt9cT9mJnqBo-4" target="QiN_mr4yA5usqslSAaUG-13" edge="1">
          <mxGeometry width="50" height="50" relative="1" as="geometry">
            <mxPoint x="735" y="310" as="sourcePoint" />
            <mxPoint x="703" y="263" as="targetPoint" />
          </mxGeometry>
        </mxCell>
        <mxCell id="1RYsxwtu4yks75y-5LN4-9" value="" style="endArrow=none;rounded=0;strokeWidth=4;exitX=0;exitY=1;exitDx=0;exitDy=0;entryX=0.5;entryY=0;entryDx=0;entryDy=0;" parent="1" source="QiN_mr4yA5usqslSAaUG-4" target="QiN_mr4yA5usqslSAaUG-13" edge="1">
          <mxGeometry width="50" height="50" relative="1" as="geometry">
            <mxPoint x="745" y="320" as="sourcePoint" />
            <mxPoint x="713" y="273" as="targetPoint" />
          </mxGeometry>
        </mxCell>
        <mxCell id="1RYsxwtu4yks75y-5LN4-10" value="" style="endArrow=none;rounded=0;strokeWidth=4;exitX=0;exitY=0.5;exitDx=0;exitDy=0;entryX=1;entryY=0;entryDx=0;entryDy=0;" parent="1" source="QiN_mr4yA5usqslSAaUG-3" target="QiN_mr4yA5usqslSAaUG-4" edge="1">
          <mxGeometry width="50" height="50" relative="1" as="geometry">
            <mxPoint x="755" y="330" as="sourcePoint" />
            <mxPoint x="723" y="283" as="targetPoint" />
          </mxGeometry>
        </mxCell>
        <mxCell id="1RYsxwtu4yks75y-5LN4-11" value="12" style="ellipse;aspect=fixed;fillColor=#0050ef;fontColor=#ffffff;strokeColor=#001DBC;" parent="1" vertex="1">
          <mxGeometry x="500" y="230" width="50" height="50" as="geometry" />
        </mxCell>
        <mxCell id="1RYsxwtu4yks75y-5LN4-12" value="" style="endArrow=none;rounded=0;strokeWidth=4;exitX=0;exitY=0;exitDx=0;exitDy=0;entryX=1;entryY=1;entryDx=0;entryDy=0;" parent="1" source="1RYsxwtu4yks75y-5LN4-11" target="QiN_mr4yA5usqslSAaUG-3" edge="1">
          <mxGeometry width="50" height="50" relative="1" as="geometry">
            <mxPoint x="459" y="204" as="sourcePoint" />
            <mxPoint x="425" y="160" as="targetPoint" />
          </mxGeometry>
        </mxCell>
        <mxCell id="1RYsxwtu4yks75y-5LN4-13" value="" style="endArrow=none;rounded=0;strokeWidth=4;exitX=0.5;exitY=0;exitDx=0;exitDy=0;entryX=0.5;entryY=1;entryDx=0;entryDy=0;" parent="1" source="WgxtZ3xMRt9cT9mJnqBo-7" target="1RYsxwtu4yks75y-5LN4-11" edge="1">
          <mxGeometry width="50" height="50" relative="1" as="geometry">
            <mxPoint x="640" y="277" as="sourcePoint" />
            <mxPoint x="606" y="233" as="targetPoint" />
          </mxGeometry>
        </mxCell>
        <mxCell id="1RYsxwtu4yks75y-5LN4-14" value="" style="endArrow=none;rounded=0;strokeWidth=4;exitX=0;exitY=0.5;exitDx=0;exitDy=0;entryX=1;entryY=0.5;entryDx=0;entryDy=0;" parent="1" source="QiN_mr4yA5usqslSAaUG-12" target="1RYsxwtu4yks75y-5LN4-11" edge="1">
          <mxGeometry width="50" height="50" relative="1" as="geometry">
            <mxPoint x="614" y="340" as="sourcePoint" />
            <mxPoint x="580" y="296" as="targetPoint" />
          </mxGeometry>
        </mxCell>
        <mxCell id="1RYsxwtu4yks75y-5LN4-15" value="13" style="ellipse;aspect=fixed;fillColor=#0050ef;fontColor=#ffffff;strokeColor=#001DBC;" parent="1" vertex="1">
          <mxGeometry x="380" y="260" width="50" height="50" as="geometry" />
        </mxCell>
        <mxCell id="1RYsxwtu4yks75y-5LN4-16" value="" style="endArrow=none;rounded=0;strokeWidth=4;exitX=0;exitY=0.5;exitDx=0;exitDy=0;entryX=0.96;entryY=0.36;entryDx=0;entryDy=0;entryPerimeter=0;" parent="1" source="1RYsxwtu4yks75y-5LN4-11" target="1RYsxwtu4yks75y-5LN4-15" edge="1">
          <mxGeometry width="50" height="50" relative="1" as="geometry">
            <mxPoint x="475" y="440" as="sourcePoint" />
            <mxPoint x="535" y="290" as="targetPoint" />
          </mxGeometry>
        </mxCell>
        <mxCell id="1RYsxwtu4yks75y-5LN4-18" value="" style="endArrow=none;rounded=0;strokeWidth=4;exitX=0;exitY=0;exitDx=0;exitDy=0;entryX=1;entryY=1;entryDx=0;entryDy=0;" parent="1" source="1RYsxwtu4yks75y-5LN4-15" target="QiN_mr4yA5usqslSAaUG-4" edge="1">
          <mxGeometry width="50" height="50" relative="1" as="geometry">
            <mxPoint x="450" y="465" as="sourcePoint" />
            <mxPoint x="380" y="465" as="targetPoint" />
          </mxGeometry>
        </mxCell>
        <mxCell id="1RYsxwtu4yks75y-5LN4-48" value="" style="endArrow=none;rounded=0;strokeWidth=4;exitX=1;exitY=1;exitDx=0;exitDy=0;entryX=0.5;entryY=0;entryDx=0;entryDy=0;" parent="1" source="1RYsxwtu4yks75y-5LN4-15" target="WgxtZ3xMRt9cT9mJnqBo-7" edge="1">
          <mxGeometry width="50" height="50" relative="1" as="geometry">
            <mxPoint x="475" y="440" as="sourcePoint" />
            <mxPoint x="535" y="290" as="targetPoint" />
          </mxGeometry>
        </mxCell>
        <mxCell id="1RYsxwtu4yks75y-5LN4-49" value="u" style="ellipse;aspect=fixed;fillColor=#008a00;fontColor=#ffffff;strokeColor=#005700;" parent="1" vertex="1">
          <mxGeometry x="360" y="330" width="50" height="50" as="geometry" />
        </mxCell>
      </root>
    </mxGraphModel>
  </diagram>
</mxfile>
